<?xml version="1.0" encoding="UTF-8"?>
<!DOCTYPE svg PUBLIC "-//W3C//DTD SVG 1.1//EN" "http://www.w3.org/Graphics/SVG/1.1/DTD/svg11.dtd">
<!-- Creator: CorelDRAW -->
<svg xmlns="http://www.w3.org/2000/svg" xml:space="preserve" width="133.746mm" height="120.291mm" version="1.1" style="shape-rendering:geometricPrecision; text-rendering:geometricPrecision; image-rendering:optimizeQuality; fill-rule:evenodd; clip-rule:evenodd"
viewBox="0 0 251244.79 225968.81"
 xmlns:xlink="http://www.w3.org/1999/xlink"
 xmlns:xodm="http://www.corel.com/coreldraw/odm/2003">
 <defs>
  <style type="text/css">
   <![CDATA[
    .fil0 {fill:#FF0009}
   ]]>
  </style>
 </defs>
 <g id="Camada_x0020_1">
  <metadata id="CorelCorpID_0Corel-Layer"/>
  <path class="fil0" d="M125622.3 160637.44c9337.35,0 16906.63,7569.29 16906.63,16906.63 0,9337.35 -7569.29,16906.63 -16906.63,16906.63 -9337.35,0 -16906.63,-7569.29 -16906.63,-16906.63 0,-9337.35 7569.29,-16906.63 16906.63,-16906.63zm0 -105097.65l0 0c6766.6,0 12302.77,5536.17 12302.77,12302.77l0 68436.93c0,6766.6 -5536.17,12302.77 -12302.77,12302.77l0 0c-6766.6,0 -12302.77,-5536.17 -12302.77,-12302.77l0 -68436.93c0,-6766.6 5536.17,-12302.77 12302.77,-12302.77zm-122399.33 134751.51l101676.31 -178254.53c4361.91,-7647.25 11919.18,-12036.77 20723.02,-12036.77 8803.66,0 16361.11,4389.34 20723.02,12036.58l101676.49 178254.72c4329.41,7590.14 4295.6,16246.9 -93.36,23803.04 -4388.77,7555.95 -11891.56,11874.47 -20629.66,11874.47l-203352.99 0c-8738.1,0 -16240.7,-4318.52 -20629.47,-11874.66 -4388.96,-7555.95 -4422.78,-16212.71 -93.36,-23802.85z"/>
 </g>
</svg>
